<svg width="768" height="1024" viewBox="0 0 768 1024" fill="none" xmlns="http://www.w3.org/2000/svg">
<path d="M593.574 81.5736C582.321 70.3214 567.06 64 551.147 64H60C26.8629 64 0 90.8629 0 124V900C0 933.137 26.8629 960 60 960H708C741.137 960 768 933.137 768 900V280.853C768 264.94 761.679 249.679 750.426 238.426L593.574 81.5736ZM704 836C704 869.137 677.137 896 644 896H124C90.8629 896 64 869.137 64 836V188C64 154.863 90.8629 128 124 128H487.147C503.06 128 518.321 134.321 529.574 145.574L686.426 302.426C697.679 313.679 704 328.94 704 344.853V836ZM188 256C154.863 256 128 282.863 128 316V708C128 741.137 154.863 768 188 768H196C229.137 768 254.795 739.713 269.8 710.168C290.937 668.553 334.156 640 384 640C313.344 640 256 582.625 256 512C256 441.344 313.344 384 384 384C454.625 384 512 441.344 512 512C512 582.625 454.625 640 384 640C433.823 640 477.052 668.554 498.195 710.17C513.204 739.713 538.863 768 572 768H580C613.137 768 640 741.137 640 708V408.853C640 392.94 633.679 377.679 622.426 366.426L529.574 273.574C518.321 262.321 503.06 256 487.147 256H188Z" fill="#436D97"/>
</svg>
