<svg width="768" height="1024" viewBox="0 0 768 1024" fill="none" xmlns="http://www.w3.org/2000/svg">
<path d="M448 288C448 270.327 433.673 256 416 256H160C142.327 256 128 270.327 128 288V288C128 305.673 142.327 320 160 320H416C433.673 320 448 305.673 448 288V288ZM593.574 81.5736C582.321 70.3214 567.06 64 551.147 64H60C26.8629 64 0 90.8629 0 124V900C0 933.137 26.8629 960 60 960H708C741.137 960 768 933.137 768 900V280.853C768 264.94 761.679 249.679 750.426 238.426L593.574 81.5736ZM704 836C704 869.137 677.137 896 644 896H124C90.8629 896 64 869.137 64 836V188C64 154.863 90.8629 128 124 128H487.147C503.06 128 518.321 134.321 529.574 145.574L686.426 302.426C697.679 313.679 704 328.94 704 344.853V836ZM128 736C128 753.673 142.327 768 160 768H608C625.673 768 640 753.673 640 736V736C640 718.327 625.673 704 608 704H160C142.327 704 128 718.327 128 736V736ZM128 608C128 625.673 142.327 640 160 640H608C625.673 640 640 625.673 640 608V608C640 590.327 625.673 576 608 576H160C142.327 576 128 590.327 128 608V608ZM128 480C128 497.673 142.327 512 160 512H608C625.673 512 640 497.673 640 480V480C640 462.327 625.673 448 608 448H160C142.327 448 128 462.327 128 480V480Z" fill="#34495E"/>
</svg>
