<svg version="1.1" xmlns="http://www.w3.org/2000/svg" xmlns:xlink="http://www.w3.org/1999/xlink" x="0px" y="0px" width="512px" height="512px"><path d="M488.698 58.3113H302.231V5.98193H269.263L0 52.6132V459.503L266.066 506.018H302.231V447.874H476.72C486.663 447.409 497.71 448.398 506.199 442.234C512.944 431.827 511.31 418.802 511.891 407.057V81.1036C513.228 67.7306 502.071 57.0322 488.698 58.3113ZM170.535 275.304C157.337 282.048 142.219 281.118 127.858 280.653L127.8 348.855L93.2044 345.948L93.2625 159.598C124.835 161.109 163.093 147.097 189.258 170.761C214.318 201.17 207.689 257.105 170.535 275.304ZM484.107 420.433H302.231V383.916H441.776V360.659H302.231V331.587H441.776V308.329H302.289C302.289 308.329 302.231 285.537 302.173 274.141C325.198 281.292 351.421 281.118 372.004 267.28C394.273 254.081 405.901 228.905 407.82 203.787L331.303 203.787V127.851L302.231 133.724V85.7523H484.107V420.433ZM342.927 115.699C383.337 117.56 417.356 151.72 419.507 192.014H342.927V115.699ZM127.8 191.053C139.254 190.53 153.441 188.437 161.174 199.194C167.803 210.59 167.454 225.591 161.93 237.336C155.302 249.313 140.301 248.151 128.73 249.546C127.509 230.068 127.625 210.59 127.8 191.053Z" fill="#FF4333"/>
</svg>
