<svg width="768" height="1024" viewBox="0 0 768 1024" fill="none" xmlns="http://www.w3.org/2000/svg">
<path d="M60 960C26.8629 960 0 933.137 0 900V124C0 90.8629 26.8629 64 60 64H551.147C567.06 64 582.321 70.3214 593.574 81.5736L750.426 238.426C761.679 249.679 768 264.94 768 280.853V900C768 933.137 741.137 960 708 960H60ZM704 344.853C704 328.94 697.679 313.679 686.426 302.426L529.574 145.574C518.321 134.321 503.06 128 487.147 128H124C90.8629 128 64 154.863 64 188V836C64 869.137 90.8629 896 124 896H644C677.137 896 704 869.137 704 836V344.853ZM320 452C320 485.137 293.137 512 260 512H188C154.863 512 128 485.137 128 452V316C128 282.863 154.863 256 188 256H260C293.137 256 320 282.863 320 316V452ZM256 352C256 334.327 241.673 320 224 320V320C206.327 320 192 334.327 192 352V416C192 433.673 206.327 448 224 448V448C241.673 448 256 433.673 256 416V352ZM256 736C256 753.673 270.327 768 288 768V768C305.673 768 320 782.327 320 800V800C320 817.673 305.673 832 288 832H160C142.327 832 128 817.673 128 800V800C128 782.327 142.327 768 160 768V768C177.673 768 192 753.673 192 736V672C192 654.327 177.673 640 160 640V640C142.327 640 128 625.673 128 608V608C128 590.327 142.327 576 160 576H196C229.137 576 256 602.863 256 636V736ZM512 416C512 433.673 526.327 448 544 448V448C561.673 448 576 462.327 576 480V480C576 497.673 561.673 512 544 512H416C398.327 512 384 497.673 384 480V480C384 462.327 398.327 448 416 448V448C433.673 448 448 433.673 448 416V352C448 334.327 433.673 320 416 320V320C398.327 320 384 305.673 384 288V288C384 270.327 398.327 256 416 256H452C485.137 256 512 282.863 512 316V416ZM576 772C576 805.137 549.137 832 516 832H444C410.863 832 384 805.137 384 772V636C384 602.863 410.863 576 444 576H516C549.137 576 576 602.863 576 636V772ZM512 672C512 654.327 497.673 640 480 640V640C462.327 640 448 654.327 448 672V736C448 753.673 462.327 768 480 768V768C497.673 768 512 753.673 512 736V672Z" fill="#436D97"/>
</svg>
