<svg width="768" height="1024" viewBox="0 0 768 1024" fill="none" xmlns="http://www.w3.org/2000/svg">
<g clip-path="url(#clip0)">
<path d="M593.574 81.5736C582.321 70.3214 567.06 64 551.147 64H60C26.8629 64 0 90.8629 0 124V900C0 933.137 26.8629 960 60 960H708C741.137 960 768 933.137 768 900V280.853C768 264.94 761.679 249.679 750.426 238.426L593.574 81.5736ZM704 836C704 869.137 677.137 896 644 896H124C90.8629 896 64 869.137 64 836V188C64 154.863 90.8629 128 124 128H487.147C503.06 128 518.321 134.321 529.574 145.574L686.426 302.426C697.679 313.679 704 328.94 704 344.853V836Z" fill="#34495E"/>
<path d="M317.972 637.031C318.216 636.672 318.442 636.342 318.646 636.043C351.295 625.023 362.802 621.165 385.508 615.045C396.678 612.034 413.736 608.188 428.115 605.073C435.28 603.521 441.739 602.16 446.407 601.186C447.912 600.872 449.23 600.599 450.325 600.372C451.667 601.642 453.469 603.308 455.668 605.251C460.725 609.721 467.92 615.694 476.47 621.699C514.326 648.288 556.052 660.845 588.802 660.78C605.132 660.747 619.832 657.57 630.695 650.798C641.857 643.841 648.847 633.089 648.847 619.173C648.847 608.975 646.076 599.242 639.718 590.789C633.4 582.388 623.899 575.727 611.212 570.976C586.063 561.557 547.194 559.183 490.99 566.518L459.729 570.597L433.958 538.541C433.955 538.537 433.952 538.534 433.95 538.53C418.952 519.687 402.129 496.434 396.543 486.952L387.383 471.401L398.726 427.787C406.181 399.12 410.293 373.195 410.917 351.122C411.538 329.169 408.729 310.426 401.783 296.563C392.796 278.63 376.68 268.346 360.507 267.123C344.141 265.885 328.071 274.052 320.698 291.851L327.165 294.53L320.698 291.851C317.992 298.383 316.551 307.193 315.96 316.878C315.362 326.698 315.611 337.961 316.594 349.707C318.557 373.155 323.494 399.08 330.872 419.995L341.629 450.489L325.69 492.562C316.481 516.869 299.762 556.863 288.582 581.325L269.171 623.794L218.922 648.765L222.038 655.034L218.922 648.765C177.004 669.597 147.31 690.277 131.759 710.028C123.932 719.969 119.246 730.236 119.009 740.577C118.768 751.141 123.192 760.67 131.373 768.851C140.343 777.821 153.224 781.472 166.895 780.951C180.602 780.429 195.683 775.731 210.133 767.263C223.283 759.557 238.49 745.516 253.902 727.793C269.407 709.963 285.461 688.009 300.244 664.059C304.101 657.81 309.019 650.34 313.001 644.394C314.986 641.429 316.727 638.859 317.972 637.031ZM485.468 593.752C498.764 592.072 516.763 590.1 530.052 589.187C565.582 588.668 575.075 590.192 587.115 596.253C600.38 602.93 601.363 618.19 590.917 625.867L590.494 626.17C584.464 630.484 575.671 631.925 556.203 625.966C536.316 619.879 508.978 607.934 498.034 601.683C494.919 599.901 490.188 596.867 485.468 593.752ZM430.577 576.676C427.005 577.403 422.808 578.266 418.306 579.209C405.215 581.95 389.377 585.4 378.837 588.153C368.876 590.755 354.231 595.229 342.185 599.016C340.228 599.631 338.335 600.23 336.537 600.801L361.253 539.71C365.352 530.031 369.845 517.303 373.281 507.106C373.708 505.839 374.12 504.609 374.513 503.425C377.687 508.223 381.788 514.109 386.817 520.714C397.102 536.235 413.187 557.019 422.976 567.358L430.577 576.676ZM367.696 346.806C364.494 366.985 358.915 393.445 355.359 405.52L355.148 406.235L352.533 397.941C347.527 382.057 343.667 355.709 342.446 340.187C340.653 317.403 345.297 304.154 350.414 298.846C352.737 296.436 354.962 295.794 357.034 296.023C359.252 296.268 362.373 297.645 365.96 301.41C367.972 304.903 369.206 310.728 369.442 318.899C369.681 327.187 368.881 336.834 367.696 346.806ZM241.083 667.709C231.031 682.927 219.449 698.296 208.467 711.284C195.594 726.509 184.15 737.736 177.212 742.024C167.061 748.298 160.604 750.873 156.205 751.24C154.206 751.407 152.743 751.103 151.501 750.518C150.199 749.904 148.741 748.792 147.073 746.782C144.846 744.099 144.186 741.177 145.232 737.312C146.389 733.038 149.702 727.567 155.994 721.05C168.529 708.066 190.906 692.938 222.501 677.052L219.357 670.798L222.501 677.052L241.083 667.709Z" fill="#34495E" stroke="#34495E" stroke-width="14"/>
</g>
<defs>
<clipPath id="clip0">
<rect width="768" height="1024" fill="white"/>
</clipPath>
</defs>
</svg>
