<svg width="896" height="1024" viewBox="0 0 896 1024" fill="none" xmlns="http://www.w3.org/2000/svg">
<g clip-path="url(#clip0)">
<path d="M841 192C809 192 505 192 489 192C473 192 457 176 457 160C457 144 457 160 457 128C457 96 425 64 393 64C361 64 105 64 73 64C41 64 9 96 9 128C9 152.242 9 543.768 9 732.194C9 787.422 53.7715 832 109 832H805C860.228 832 905 787.382 905 732.154C905 573.505 905 279.279 905 256C905 224 873 192 841 192ZM393 160C393 177.673 378.673 192 361 192H105C87.3269 192 73 177.673 73 160V160C73 143 89 128 105 128C121 128 346 128 361 128C376 128 393 143 393 160V160Z" fill="#436D97"/>
</g>
<defs>
<clipPath id="clip0">
<rect width="896" height="1024" fill="white"/>
</clipPath>
</defs>
</svg>
