<svg width="768" height="1024" viewBox="0 0 768 1024" fill="none" xmlns="http://www.w3.org/2000/svg">
<path d="M320 416C302.327 398.327 273.673 398.327 256 416L170.426 501.574C146.995 525.005 146.995 562.995 170.426 586.426L256 672C273.673 689.673 302.327 689.673 320 672V672C337.673 654.327 337.673 625.673 320 608L298.426 586.426C274.995 562.995 274.995 525.005 298.426 501.574L320 480C337.673 462.327 337.673 433.673 320 416V416ZM448 416C430.327 433.673 430.327 462.327 448 480L469.574 501.574C493.005 525.005 493.005 562.995 469.574 586.426L448 608C430.327 625.673 430.327 654.327 448 672V672C465.673 689.673 494.327 689.673 512 672L597.574 586.426C621.005 562.995 621.005 525.005 597.574 501.574L512 416C494.327 398.327 465.673 398.327 448 416V416ZM593.574 81.5736C582.321 70.3214 567.06 64 551.147 64H60C26.8629 64 0 90.8629 0 124V900C0 933.137 26.8629 960 60 960H708C741.137 960 768 933.137 768 900V280.853C768 264.94 761.679 249.679 750.426 238.426L593.574 81.5736ZM704 836C704 869.137 677.137 896 644 896H124C90.8629 896 64 869.137 64 836V188C64 154.863 90.8629 128 124 128H487.147C503.06 128 518.321 134.321 529.574 145.574L686.426 302.426C697.679 313.679 704 328.94 704 344.853V836Z" fill="#436D97"/>
</svg>
