<svg width="768" height="1024" viewBox="0 0 768 1024" fill="none" xmlns="http://www.w3.org/2000/svg">
<path d="M288 576C305.673 576 320 561.673 320 544V544C320 526.327 305.673 512 288 512V512C270.327 512 256 526.327 256 544V544C256 561.673 270.327 576 288 576V576ZM288 448C305.673 448 320 433.673 320 416V416C320 398.327 305.673 384 288 384V384C270.327 384 256 398.327 256 416V416C256 433.673 270.327 448 288 448V448ZM288 320C305.673 320 320 305.673 320 288V288C320 270.327 305.673 256 288 256V256C270.327 256 256 270.327 256 288V288C256 305.673 270.327 320 288 320V320ZM192 352C192 369.673 206.327 384 224 384V384C241.673 384 256 369.673 256 352V352C256 334.327 241.673 320 224 320V320C206.327 320 192 334.327 192 352V352ZM593.574 81.5736C582.321 70.3214 567.06 64 551.147 64H60C26.8629 64 0 90.8629 0 124V900C0 933.137 26.8629 960 60 960H708C741.137 960 768 933.137 768 900V280.853C768 264.94 761.679 249.679 750.426 238.426L593.574 81.5736ZM704 836C704 869.137 677.137 896 644 896H124C90.8629 896 64 869.137 64 836V188C64 154.863 90.8629 128 124 128H224C241.673 128 256 142.327 256 160V160C256 177.673 270.327 192 288 192V192C305.673 192 320 177.673 320 160V160C320 142.327 334.327 128 352 128H487.147C503.06 128 518.321 134.321 529.574 145.574L686.426 302.426C697.679 313.679 704 328.94 704 344.853V836ZM192 224C192 241.673 206.327 256 224 256V256C241.673 256 256 241.673 256 224V224C256 206.327 241.673 192 224 192V192C206.327 192 192 206.327 192 224V224ZM192 480C192 497.673 206.327 512 224 512V512C241.673 512 256 497.673 256 480V480C256 462.327 241.673 448 224 448V448C206.327 448 192 462.327 192 480V480ZM192 621.255C192 633.257 187.232 644.768 178.745 653.255L145.574 686.426C134.321 697.679 128 712.94 128 728.853V772C128 805.137 154.863 832 188 832H324C357.137 832 384 805.137 384 772V728.853C384 712.94 377.679 697.679 366.426 686.426L333.255 653.255C324.768 644.768 313.257 640 301.255 640H288C270.327 640 256 625.673 256 608V608C256 590.327 241.673 576 224 576V576C206.327 576 192 590.327 192 608V621.255ZM288 704C305.673 704 320 718.327 320 736V736C320 753.673 305.673 768 288 768H224C206.327 768 192 753.673 192 736V736C192 718.327 206.327 704 224 704H288Z" fill="#436D97"/>
</svg>
