<svg width="768" height="1024" viewBox="0 0 768 1024" fill="none" xmlns="http://www.w3.org/2000/svg">
<g clip-path="url(#clip0)">
<path d="M593.574 81.5736C582.321 70.3214 567.06 64 551.147 64H60C26.8629 64 0 90.8629 0 124V900C0 933.137 26.8629 960 60 960H708C741.137 960 768 933.137 768 900V280.853C768 264.94 761.679 249.679 750.426 238.426L593.574 81.5736ZM704 836C704 869.137 677.137 896 644 896H124C90.8629 896 64 869.137 64 836V188C64 154.863 90.8629 128 124 128H487.147C503.06 128 518.321 134.321 529.574 145.574L686.426 302.426C697.679 313.679 704 328.94 704 344.853V836Z" fill="#34495E"/>
<path d="M250 565V497C250 489.84 255.828 484 263 484C274.613 484 284 474.591 284 463C284 451.409 274.613 442 263 442C232.673 442 208 466.673 208 497V565C208 581.542 194.542 595 178 595C166.387 595 157 604.409 157 616C157 627.591 166.387 637 178 637C194.542 637 208 650.458 208 667V735C208 765.327 232.673 790 263 790C274.613 790 284 780.591 284 769C284 757.409 274.613 748 263 748C255.828 748 250 742.16 250 735V667C250 646.952 241.607 629.008 228.386 616C241.607 602.992 250 585.048 250 565Z" fill="#34495E" stroke="#34495E" stroke-width="8"/>
<path d="M514 667V735C514 742.16 508.172 748 501 748C489.387 748 480 757.409 480 769C480 780.591 489.387 790 501 790C531.327 790 556 765.327 556 735V667C556 650.458 569.458 637 586 637C597.613 637 607 627.591 607 616C607 604.409 597.613 595 586 595C569.458 595 556 581.542 556 565V497C556 466.673 531.327 442 501 442C489.387 442 480 451.409 480 463C480 474.591 489.387 484 501 484C508.172 484 514 489.84 514 497V565C514 585.048 522.393 602.992 535.614 616C522.393 629.008 514 646.952 514 667Z" fill="#34495E" stroke="#34495E" stroke-width="8"/>
<path d="M382 586C398.292 586 411.5 572.792 411.5 556.5C411.5 540.208 398.292 527 382 527C365.708 527 352.5 540.208 352.5 556.5C352.5 572.792 365.708 586 382 586Z" fill="#34495E" stroke="#34495E" stroke-width="8"/>
<path d="M382 646C370.387 646 361 655.409 361 667V718C361 729.591 370.387 739 382 739C393.613 739 403 729.591 403 718V667C403 655.409 393.613 646 382 646Z" fill="#34495E" stroke="#34495E" stroke-width="8"/>
</g>
<defs>
<clipPath id="clip0">
<rect width="768" height="1024" fill="white"/>
</clipPath>
</defs>
</svg>
