<svg width="768" height="1024" viewBox="0 0 768 1024" fill="none" xmlns="http://www.w3.org/2000/svg">
<g clip-path="url(#clip0)">
<path d="M593.574 81.5736C582.321 70.3214 567.06 64 551.147 64H60C26.8629 64 0 90.8629 0 124V900C0 933.137 26.8629 960 60 960H708C741.137 960 768 933.137 768 900V280.853C768 264.94 761.679 249.679 750.426 238.426L593.574 81.5736ZM704 836C704 869.137 677.137 896 644 896H124C90.8629 896 64 869.137 64 836V188C64 154.863 90.8629 128 124 128H487.147C503.06 128 518.321 134.321 529.574 145.574L686.426 302.426C697.679 313.679 704 328.94 704 344.853V836Z" fill="#436D97"/>
<path d="M252 530V462C252 454.84 257.828 449 265 449C276.613 449 286 439.591 286 428C286 416.409 276.613 407 265 407C234.673 407 210 431.673 210 462V530C210 546.542 196.542 560 180 560C168.387 560 159 569.409 159 581C159 592.591 168.387 602 180 602C196.542 602 210 615.458 210 632V700C210 730.327 234.673 755 265 755C276.613 755 286 745.591 286 734C286 722.409 276.613 713 265 713C257.828 713 252 707.16 252 700V632C252 611.952 243.607 594.008 230.386 581C243.607 567.992 252 550.048 252 530Z" fill="#436D97" stroke="#436D97" stroke-width="8"/>
<path d="M516 632V700C516 707.16 510.172 713 503 713C491.387 713 482 722.409 482 734C482 745.591 491.387 755 503 755C533.327 755 558 730.327 558 700V632C558 615.458 571.458 602 588 602C599.613 602 609 592.591 609 581C609 569.409 599.613 560 588 560C571.458 560 558 546.542 558 530V462C558 431.673 533.327 407 503 407C491.387 407 482 416.409 482 428C482 439.591 491.387 449 503 449C510.172 449 516 454.84 516 462V530C516 550.048 524.393 567.992 537.614 581C524.393 594.008 516 611.952 516 632Z" fill="#436D97" stroke="#436D97" stroke-width="8"/>
<path d="M384 551C400.292 551 413.5 537.792 413.5 521.5C413.5 505.208 400.292 492 384 492C367.708 492 354.5 505.208 354.5 521.5C354.5 537.792 367.708 551 384 551Z" fill="#436D97" stroke="#436D97" stroke-width="8"/>
<path d="M384 611C372.387 611 363 620.409 363 632V683C363 694.591 372.387 704 384 704C395.613 704 405 694.591 405 683V632C405 620.409 395.613 611 384 611Z" fill="#436D97" stroke="#436D97" stroke-width="8"/>
</g>
<defs>
<clipPath id="clip0">
<rect width="768" height="1024" fill="white"/>
</clipPath>
</defs>
</svg>
