<svg width="768" height="1024" viewBox="0 0 768 1024" fill="none" xmlns="http://www.w3.org/2000/svg">
<g clip-path="url(#clip0)">
<path d="M593.574 81.5736C582.321 70.3214 567.06 64 551.147 64H60C26.8629 64 0 90.8629 0 124V900C0 933.137 26.8629 960 60 960H708C741.137 960 768 933.137 768 900V280.853C768 264.94 761.679 249.679 750.426 238.426L593.574 81.5736ZM704 836C704 869.137 677.137 896 644 896H124C90.8629 896 64 869.137 64 836V188C64 154.863 90.8629 128 124 128H487.147C503.06 128 518.321 134.321 529.574 145.574L686.426 302.426C697.679 313.679 704 328.94 704 344.853V836ZM128 736C128 753.673 142.327 768 160 768H608C625.673 768 640 753.673 640 736V736C640 718.327 625.673 704 608 704H160C142.327 704 128 718.327 128 736V736ZM128 608C128 625.673 142.327 640 160 640H608C625.673 640 640 625.673 640 608V608C640 590.327 625.673 576 608 576H160C142.327 576 128 590.327 128 608V608ZM128 480C128 497.673 142.327 512 160 512H394.5C412.173 512 426.5 497.673 426.5 480V480C426.5 462.327 412.173 448 394.5 448H160C142.327 448 128 462.327 128 480V480Z" fill="#34495E"/>
<path d="M180.603 396.712C178.953 391.069 177.173 384.948 176.609 383.168C176.088 381.388 175.394 379.044 175.133 378.002C174.482 375.441 173.006 374.052 171.009 374.052C168.709 374.052 170.054 373.184 152.126 386.511C148.914 388.898 145.745 391.373 145.137 392.024L144.009 393.152L144.356 391.286C144.66 389.636 146.656 383.646 153.298 364.762C154.383 361.68 155.512 358.381 155.816 357.383C156.12 356.384 159.332 347.095 162.978 336.72C166.625 326.345 169.707 317.186 169.794 316.404C170.098 314.321 169.143 312.411 167.45 311.716C166.147 311.152 165.409 311.238 158.985 312.628C155.078 313.452 150.694 314.451 149.218 314.798C147.742 315.145 146.396 315.449 146.266 315.449C145.962 315.449 145.919 315.623 148.48 303.729C149.565 298.867 150.303 294.396 150.173 293.831C149.782 292.269 147.915 290.793 145.919 290.489C144.92 290.315 140.406 289.534 135.891 288.709C131.376 287.884 127.6 287.233 127.513 287.233C126.992 287.233 128.034 285.54 133.243 278.117C139.32 269.479 139.711 268.61 138.582 266.179C138.278 265.441 135.196 263.228 129.466 259.581C124.735 256.542 120.915 253.851 121.001 253.634C121.132 253.2 125.95 249.988 133.764 245.126C137.844 242.608 139.103 241.219 139.103 239.396C139.103 237.703 138.93 237.442 132.679 228.5C129.727 224.246 127.426 220.599 127.643 220.426C127.86 220.209 131.159 219.514 134.979 218.863C148.61 216.519 148.914 216.432 149.956 213.914C150.477 212.655 150.129 210.572 147.134 197.419C146.483 194.727 146.092 192.383 146.266 192.253C146.483 192.036 150.911 192.947 161.763 195.465C166.799 196.637 168.014 196.55 169.533 194.944C170.532 193.859 170.836 192.73 172.746 181.183C173.353 177.537 174.005 174.238 174.178 173.847C174.439 173.24 175.177 173.587 178.91 176.235C191.282 184.917 191.759 185.221 193.192 185.221C195.666 185.221 196.143 184.569 204.956 170.592C207.126 167.075 207.517 166.641 208.081 167.206C208.689 167.77 209.687 169.333 215.938 179.23C217.371 181.531 219.064 183.831 219.715 184.352C221.929 186.089 222.927 185.655 232 179.36C236.601 176.148 240.551 173.5 240.725 173.5C241.203 173.5 241.376 174.281 242.635 181.531C244.675 193.078 244.849 193.859 245.847 194.944C246.412 195.552 247.323 196.116 247.888 196.247C248.495 196.42 251.534 195.943 254.703 195.205C257.828 194.467 262.126 193.512 264.21 193.034C267.813 192.21 269.332 191.992 269.332 192.296C269.332 192.383 268.854 194.684 268.247 197.419C264.644 213.48 264.6 213.827 266.467 215.564C267.465 216.519 268.42 216.736 281.704 219.08C284.829 219.644 287.521 220.252 287.738 220.426C287.911 220.599 286.001 223.725 283.44 227.371C276.972 236.531 276.277 237.703 276.277 239.309C276.277 241.219 277.493 242.521 281.79 245.256C294.77 253.417 294.944 253.547 294.379 254.068C294.119 254.329 290.082 256.933 285.48 259.885C280.879 262.793 276.929 265.572 276.712 266.006C275.496 268.176 276.104 269.479 281.964 277.9C287.39 285.714 288.389 287.233 287.868 287.233C287.738 287.233 285.003 287.711 281.834 288.275C278.665 288.883 274.237 289.664 271.98 290.055C267.509 290.836 266.206 291.444 265.425 293.267C264.904 294.569 264.817 293.918 268.247 309.98C268.854 312.801 269.288 315.232 269.202 315.319C269.071 315.406 267.769 315.189 266.25 314.841C254.182 311.933 249.581 311.108 248.191 311.586C246.629 312.063 245.457 313.843 245.457 315.579C245.457 316.144 247.019 321.179 248.973 326.779C250.883 332.379 253.314 339.368 254.356 342.363C255.397 345.358 257.828 352.391 259.782 357.991C261.735 363.59 263.689 369.277 264.123 370.579C264.557 371.882 266.38 377.264 268.203 382.474C270.026 387.726 271.502 392.067 271.502 392.197C271.502 392.284 270.981 392.024 270.33 391.59C269.158 390.852 252.402 378.48 248.539 375.528C245.457 373.141 241.897 373.618 240.768 376.526C240.334 377.699 239.553 380.347 236.775 389.897C236.037 392.545 235.038 395.844 234.604 397.276C234.17 398.709 233.345 401.444 232.824 403.31L231.826 406.783L231.218 405.264C230.654 403.961 227.572 395.149 221.798 378.393C220.757 375.398 218.326 368.365 216.372 362.766C214.419 357.166 212.509 351.653 212.162 350.524C211.38 347.963 209.861 346.704 207.647 346.704C204.652 346.704 204.174 347.485 199.833 360.161C197.663 366.499 194.928 374.399 193.799 377.742C191.759 383.646 185.769 400.836 184.336 404.96L183.598 407L180.603 396.712ZM218.109 303.642C238.685 299.257 255.18 281.633 258.219 260.71C259.087 254.936 259.087 252.679 258.219 246.949C254.833 224.072 236.254 205.753 213.551 202.975C186.941 199.676 161.112 219.601 157.162 246.471C156.25 252.549 156.293 255.718 157.292 261.708C159.462 274.167 165.93 285.28 175.654 293.05C188.46 303.295 202.828 306.898 218.109 303.642Z" fill="#34495E"/>
<path d="M202.481 295.915C189.502 294.396 177.694 286.756 171.096 275.556C162.805 261.448 163.412 242.955 172.572 229.455C184.466 211.917 208.732 206.144 227.962 216.258C241.116 223.204 248.799 235.315 250.058 251.203C250.362 255.501 249.407 263.271 247.974 267.438C244.241 278.508 236.254 287.407 225.618 292.312C219.194 295.264 209.774 296.74 202.481 295.915Z" fill="#34495E"/>
</g>
<defs>
<clipPath id="clip0">
<rect width="768" height="1024" fill="white"/>
</clipPath>
</defs>
</svg>
