<svg width="768" height="1024" viewBox="0 0 768 1024" fill="none" xmlns="http://www.w3.org/2000/svg">
<g clip-path="url(#clip0)">
<path d="M593.574 81.5736C582.321 70.3214 567.06 64 551.147 64H60C26.8629 64 0 90.8629 0 124V900C0 933.137 26.8629 960 60 960H708C741.137 960 768 933.137 768 900V280.853C768 264.94 761.679 249.679 750.426 238.426L593.574 81.5736ZM704 836C704 869.137 677.137 896 644 896H124C90.8629 896 64 869.137 64 836V188C64 154.863 90.8629 128 124 128H487.147C503.06 128 518.321 134.321 529.574 145.574L686.426 302.426C697.679 313.679 704 328.94 704 344.853V836Z" fill="#34495E"/>
<path d="M333.618 389L329.709 434.818C310.375 441.638 292.495 452.031 277 465.455L234.491 445.636L184.036 532.255L223.2 559.236C221.348 569.05 220.399 579.013 220.364 589C220.387 598.986 221.324 608.949 223.164 618.764L184 645.673L234.455 732.291L276.855 712.545C292.384 725.975 310.302 736.361 329.673 743.164L333.545 789H434.455L438.327 743.182C457.679 736.344 475.572 725.926 491.073 712.473L533.545 732.291L584 645.673L544.8 618.727C546.65 608.925 547.599 598.975 547.636 589C547.613 579.014 546.676 569.051 544.836 559.236L584 532.327L533.545 445.745L491.2 465.491C475.657 452.043 457.72 441.643 438.327 434.836L434.455 389H333.618ZM384 516.273C403.288 516.273 421.787 523.935 435.426 537.574C449.065 551.213 456.727 569.712 456.727 589C456.727 608.288 449.065 626.787 435.426 640.426C421.787 654.065 403.288 661.727 384 661.727C364.712 661.727 346.213 654.065 332.574 640.426C318.935 626.787 311.273 608.288 311.273 589C311.273 569.712 318.935 551.213 332.574 537.574C346.213 523.935 364.712 516.273 384 516.273Z" fill="#34495E"/>
</g>
<defs>
<clipPath id="clip0">
<rect width="768" height="1024" fill="white"/>
</clipPath>
</defs>
</svg>
