<svg width="768" height="1024" viewBox="0 0 768 1024" fill="none" xmlns="http://www.w3.org/2000/svg">
<g clip-path="url(#clip0)">
<path d="M593.574 81.5736C582.321 70.3214 567.06 64 551.147 64H60C26.8629 64 0 90.8629 0 124V900C0 933.137 26.8629 960 60 960H708C741.137 960 768 933.137 768 900V280.853C768 264.94 761.679 249.679 750.426 238.426L593.574 81.5736ZM704 836C704 869.137 677.137 896 644 896H124C90.8629 896 64 869.137 64 836V188C64 154.863 90.8629 128 124 128H487.147C503.06 128 518.321 134.321 529.574 145.574L686.426 302.426C697.679 313.679 704 328.94 704 344.853V836Z" fill="#436D97"/>
<path d="M383.382 336C342.802 336.072 301.704 346.442 264.038 368.188C149.248 434.462 109.92 581.241 176.195 696.032C242.469 810.822 389.248 850.15 504.038 783.875C618.829 717.601 658.156 570.822 591.882 456.032C547.354 378.907 466.474 335.855 383.382 336ZM470.882 363.094C499.712 374.83 524.959 391.825 545.882 412.563L462.257 497.219C452.192 487.221 440.031 479.022 426.163 473.344L470.882 363.094ZM384.038 475C439.695 475 485.007 520.243 485.007 576.032C485.007 631.82 439.695 677.094 384.038 677.094C328.382 677.094 283.07 631.82 283.07 576.032C283.07 520.243 328.382 475 384.038 475ZM384.038 485.094C333.656 485.094 293.007 525.781 293.007 576.032C293.007 626.282 333.656 667 384.038 667C434.421 667 475.07 626.282 475.07 576.032C475.07 525.781 434.421 485.094 384.038 485.094ZM384.038 544.032C401.711 544.032 416.038 558.359 416.038 576.032C416.038 593.705 401.711 608.032 384.038 608.032C366.365 608.032 352.038 593.705 352.038 576.032C352.038 558.359 366.365 544.032 384.038 544.032ZM355.163 700.219C358.097 700.219 360.764 700.442 363.163 700.875C365.563 701.309 367.675 701.808 369.476 702.375C371.276 702.943 372.776 703.526 373.976 704.125C375.175 704.725 376.034 705.198 376.57 705.532L372.07 718.125C369.935 716.992 367.434 716.02 364.601 715.219C361.768 714.419 358.575 714.032 354.976 714.032C352.575 714.032 350.213 714.419 347.913 715.219C345.613 716.02 343.587 717.327 341.82 719.094C340.053 720.861 338.636 723.138 337.57 725.938C336.503 728.737 335.976 732.126 335.976 736.125C335.976 739.326 336.307 742.327 337.007 745.094C337.707 747.861 338.847 750.219 340.413 752.219C341.98 754.219 344.037 755.802 346.57 756.969C349.102 758.136 352.156 758.719 355.757 758.719C358.023 758.719 360.051 758.611 361.851 758.344C363.65 758.078 365.263 757.743 366.663 757.375C368.064 757.008 369.285 756.592 370.351 756.125C371.417 755.658 372.39 755.243 373.257 754.844L377.57 767.344C375.37 768.677 372.257 769.871 368.257 770.938C364.257 772.005 359.618 772.532 354.351 772.532C343.084 772.532 334.501 769.393 328.601 763.125C322.701 756.858 319.757 747.969 319.757 736.438C319.757 730.703 320.675 725.593 322.476 721.094C324.276 716.595 326.749 712.789 329.882 709.688C333.015 706.587 336.736 704.226 341.07 702.625C345.403 701.025 350.097 700.219 355.163 700.219ZM408.913 701.032C414.846 701.032 420.236 701.699 425.07 703.032C429.904 704.364 434.04 706.478 437.507 709.344C440.974 712.211 443.64 715.877 445.507 720.344C447.374 724.811 448.32 730.17 448.32 736.438C448.32 742.438 447.374 747.659 445.507 752.125C443.64 756.592 441.003 760.286 437.57 763.219C434.136 766.152 429.941 768.377 425.007 769.844C420.073 771.311 414.547 772.032 408.413 772.032C405.614 772.032 402.334 771.921 398.601 771.688C394.868 771.455 391.202 770.954 387.601 770.219V702.719C391.202 702.052 394.951 701.608 398.851 701.375C402.751 701.142 406.114 701.032 408.913 701.032ZM409.695 714.344C408.628 714.344 407.547 714.342 406.413 714.375C405.28 714.409 404.196 714.493 403.195 714.625V758.438C403.929 758.505 404.791 758.561 405.757 758.594C406.723 758.628 407.862 758.625 409.195 758.625C416.995 758.625 422.803 756.653 426.57 752.719C430.336 748.785 432.226 743.369 432.226 736.438C432.226 729.171 430.42 723.671 426.82 719.938C423.219 716.205 417.495 714.344 409.695 714.344Z" fill="#436D97"/>
</g>
<defs>
<clipPath id="clip0">
<rect width="768" height="1024" fill="white"/>
</clipPath>
</defs>
</svg>
