<svg width="768" height="1024" viewBox="0 0 768 1024" fill="none" xmlns="http://www.w3.org/2000/svg">
<g clip-path="url(#clip0)">
<path d="M593.574 81.5736C582.321 70.3214 567.06 64 551.147 64H60C26.8629 64 0 90.8629 0 124V900C0 933.137 26.8629 960 60 960H708C741.137 960 768 933.137 768 900V280.853C768 264.94 761.679 249.679 750.426 238.426L593.574 81.5736ZM704 836C704 869.137 677.137 896 644 896H124C90.8629 896 64 869.137 64 836V188C64 154.863 90.8629 128 124 128H487.147C503.06 128 518.321 134.321 529.574 145.574L686.426 302.426C697.679 313.679 704 328.94 704 344.853V836Z" fill="#436D97"/>
<path d="M384 395C273.6 395 184 484.6 184 595C184 705.4 273.6 795 384 795C494.4 795 584 705.4 584 595C584 484.6 494.4 395 384 395ZM384 455C417.2 455 444 481.8 444 515C444 548.2 417.2 575 384 575C350.8 575 324 548.2 324 515C324 481.8 350.8 455 384 455ZM384 739C334 739 289.8 713.4 264 674.6C264.6 634.8 344 613 384 613C423.8 613 503.4 634.8 504 674.6C478.2 713.4 434 739 384 739Z" fill="#436D97"/>
</g>
<defs>
<clipPath id="clip0">
<rect width="768" height="1024" fill="white"/>
</clipPath>
</defs>
</svg>
