<svg width="966" height="534" viewBox="0 0 966 534" fill="none" xmlns="http://www.w3.org/2000/svg">
<g clip-path="url(#clip0)">
<path d="M544.024 533.4C543.524 532.9 581.324 481.8 584.324 479C584.624 478.7 589.824 472 595.724 464C601.724 456 611.424 443.2 617.324 435.5C623.124 427.8 632.424 415.7 637.824 408.5C643.224 401.4 651.124 391 655.324 385.5C659.524 380 669.224 367.2 676.924 357.1C684.524 346.9 696.024 331.8 702.324 323.5C708.624 315.2 716.124 305.2 719.024 301.4C721.924 297.6 724.624 294.1 725.024 293.5C725.524 293 727.224 290.7 728.824 288.5C730.524 286.3 732.024 284.3 732.324 284C733.024 283.3 744.724 267.8 745.624 266.3C746.324 265.1 740.724 257.1 725.324 237.2C723.424 234.7 719.624 229.7 716.824 226C714.124 222.3 709.824 216.7 707.324 213.5C704.824 210.3 701.224 205.6 699.324 203C697.424 200.4 691.224 192.2 685.624 184.9C680.024 177.5 670.224 164.5 663.724 156C657.324 147.5 651.124 139.3 649.924 137.9C648.724 136.4 646.924 134 645.824 132.5C643.424 129.1 629.324 110.6 599.524 71.5001C596.624 67.7001 590.324 59.3001 585.524 53.0001C580.824 46.7001 574.424 38.3001 571.324 34.4001C568.324 30.4001 564.924 25.9001 563.824 24.4001C562.724 22.9001 560.624 20.2001 559.224 18.5001C557.824 16.9001 554.424 12.4001 551.724 8.50008C549.024 4.70008 546.524 1.30008 546.124 1.20008C544.524 0.500081 546.424 -0.799919 548.324 -0.299919C549.424 8.12711e-05 550.124 0.500081 549.924 0.900081C549.624 1.30008 550.424 1.70008 551.624 1.70008C553.324 1.90008 553.524 1.70008 552.324 1.00008C551.424 0.400081 592.224 8.12592e-05 662.024 8.12592e-05H773.224L775.424 3.30008C776.724 5.00008 778.124 6.60008 778.524 6.80008C778.924 7.00008 779.324 7.80008 779.324 8.60008C779.324 9.40008 779.724 10.0001 780.224 10.0001C780.724 10.0001 782.124 11.6001 783.324 13.5001C784.524 15.5001 786.024 17.6001 786.624 18.3001C789.424 21.2001 796.224 29.9001 799.724 35.0001C801.924 38.0001 804.024 40.7001 804.524 40.8001C804.924 41.0001 805.324 41.8001 805.324 42.5001C805.324 43.2001 805.724 44.0001 806.224 44.2001C806.624 44.4001 809.024 47.2001 811.424 50.6001C820.824 63.6001 822.724 66.0001 823.524 66.0001C823.924 66.0001 824.324 66.7001 824.324 67.5001C824.324 68.3001 824.824 69.0001 825.324 69.0001C825.924 69.0001 826.324 69.5001 826.324 70.0001C826.324 70.6001 827.424 72.1001 828.824 73.4001C830.224 74.7001 831.324 76.2001 831.324 76.9001C831.324 77.5001 831.824 78.0001 832.324 78.0001C832.924 78.0001 833.324 78.5001 833.324 79.0001C833.324 79.6001 834.124 80.8001 835.124 81.8001C838.324 85.3001 840.324 88.0001 840.324 89.0001C840.324 89.6001 840.824 90.0001 841.324 90.0001C841.924 90.0001 842.324 90.7001 842.324 91.5001C842.324 92.3001 842.724 93.0001 843.124 93.0001C843.624 93.0001 845.524 95.2001 847.424 98.0001C849.324 100.7 851.124 103 851.624 103C852.024 103 852.324 103.7 852.324 104.5C852.324 105.3 852.624 106 853.124 106C853.524 106 855.224 108 856.824 110.5C858.524 112.9 860.124 115 860.624 115C861.024 115 861.324 115.5 861.324 116C861.324 116.6 862.424 118.1 863.824 119.4C865.224 120.7 866.324 122.2 866.324 122.9C866.324 123.5 866.824 124 867.324 124C867.924 124 868.324 124.7 868.324 125.5C868.324 126.2 868.924 127.3 869.624 127.7C870.424 128.1 872.224 130.4 873.824 132.8C875.324 135.1 877.024 137 877.424 137C877.924 137 878.324 137.7 878.324 138.5C878.324 139.3 878.824 140 879.324 140C879.924 140 880.324 140.5 880.324 141C880.324 141.6 881.324 143.1 882.624 144.3C883.824 145.5 885.524 147.7 886.224 149.3C887.024 150.8 888.024 152 888.424 152C888.824 152 890.124 153.5 891.224 155.3C892.324 157.2 894.324 159.8 895.524 161.2C899.524 165.6 901.324 168 901.324 168.8C901.324 169.2 902.424 170.7 903.824 172.2C905.224 173.7 906.324 175.4 906.324 176C906.324 176.5 906.624 177 907.124 177C907.524 177 909.224 179.1 910.824 181.5C912.524 184 914.124 186 914.624 186C915.024 186 915.324 186.7 915.324 187.5C915.324 188.3 915.724 189 916.224 189C916.624 189 918.224 190.7 919.624 192.9C921.024 195 923.324 198 924.724 199.5C926.124 201 927.324 202.7 927.324 203.3C927.324 203.8 928.424 205.3 929.824 206.6C931.224 207.9 932.324 209.4 932.324 210C932.324 210.5 932.724 211 933.124 211C933.624 211 934.624 212.2 935.424 213.8C936.124 215.3 937.824 217.5 939.024 218.7C940.324 219.9 941.324 221.4 941.324 222C941.324 222.5 941.624 223 942.124 223C942.524 223 944.224 225 945.824 227.5C947.524 229.9 949.124 232 949.624 232C950.024 232 950.324 232.7 950.324 233.5C950.324 234.3 950.724 235 951.224 235C951.724 235 953.524 237.3 955.324 240C957.124 242.8 958.924 245 959.424 245C959.924 245 960.324 245.9 960.324 247C960.324 248.1 960.624 249 961.124 249C962.024 249 964.224 255.2 965.424 261.5C966.424 266.9 965.824 275 964.124 279C963.524 280.4 962.524 282.6 961.924 284C961.024 286.1 946.024 307.1 941.924 312.1C941.224 312.9 938.824 316.1 936.524 319.1C934.324 322.1 930.024 327.7 927.124 331.5C914.624 347.8 896.524 371.6 893.024 376.4C890.924 379.2 888.724 382.2 888.024 383C887.324 383.8 885.424 386.3 883.824 388.5C882.124 390.7 880.424 392.9 880.024 393.5C868.524 408.3 862.324 416.7 862.324 417.7C862.324 418.7 845.224 442.4 843.324 444C843.024 444.3 838.724 449.9 833.824 456.5C828.824 463.1 824.324 469.2 823.624 470C822.924 470.8 819.124 475.9 815.124 481.2C811.124 486.5 800.424 500.6 791.524 512.4L775.124 534H659.924C596.524 534 544.424 533.7 544.024 533.4Z" fill="#119D58"/>
<path d="M190.624 531.8C189.524 530.5 184.924 524.6 180.424 518.5C175.924 512.5 171.624 506.8 171.024 506C170.324 505.2 168.424 502.7 166.824 500.5C165.224 498.3 163.624 496.3 163.324 496C163.024 495.7 158.824 490.1 153.824 483.5C148.924 476.9 144.224 470.9 143.624 470C142.924 469.2 140.624 466.2 138.624 463.4C136.524 460.5 130.824 453 125.824 446.5C120.924 440.1 114.624 431.8 111.824 428C103.724 417.1 98.0239 409.5 97.4239 409C97.1239 408.7 91.9239 402 85.9239 394C79.9239 386 70.8239 374.1 65.8239 367.5C60.8239 360.9 50.4239 347.2 42.6239 337C34.9239 326.8 25.8239 314.9 22.4239 310.5C12.3239 297.3 3.62385 284.7 1.82385 280.5C0.623853 277.8 0.0238534 273.7 0.0238534 267.5C-0.176147 252.9 0.223853 252.3 28.7239 214.4C37.0239 203.5 44.3239 193.9 45.0239 193C45.7239 192.2 50.1239 186.3 54.8239 180C59.5239 173.7 64.0239 167.8 64.7239 166.9C65.5239 166 68.9239 161.5 72.4239 156.9C75.9239 152.3 79.0239 148.3 79.3239 148C79.9239 147.5 89.9239 134 100.924 119C104.724 113.8 108.824 108.3 109.824 106.9C112.924 102.7 135.924 72.4 142.824 63.5C150.524 53.5 172.924 23.9 183.624 9.8L191.724 -1H307.124H422.424L420.124 2.3C418.924 4 413.624 11.1 408.424 18C403.224 24.9 391.924 39.7 383.424 51C374.924 62.3 365.624 74.5 362.824 78.1C360.124 81.8 351.224 93.5 343.124 104.1C335.024 114.8 325.424 127.6 321.624 132.5C317.824 137.5 307.624 151 298.824 162.5C290.124 174.1 279.524 188 275.324 193.5C271.124 199 261.224 212.1 253.324 222.5C245.324 233 236.424 244.7 233.524 248.5C221.924 263.6 220.324 266 220.324 267.4C220.324 268.2 220.724 269 221.124 269.2C221.624 269.4 223.924 272.2 226.424 275.5C228.824 278.8 231.424 282.1 232.024 283C233.624 285 242.024 296 260.024 320C268.124 330.7 275.024 339.7 275.324 340C275.624 340.3 280.524 346.6 286.024 354C291.624 361.4 299.624 372 303.824 377.5C308.024 383 315.924 393.4 321.324 400.5C338.524 423.3 345.524 432.4 348.024 435.6C349.324 437.3 352.124 441 354.124 443.8C356.124 446.5 361.424 453.4 365.824 459.1C376.224 472.7 393.824 495.9 398.624 502.4C400.624 505.2 402.924 508.2 403.624 509C404.324 509.8 406.224 512.3 407.824 514.5C409.424 516.7 411.024 518.7 411.324 519C414.224 521.8 421.224 532.3 420.824 533C420.424 533.6 377.824 534 306.424 534H192.624L190.624 531.8Z" fill="#D64437"/>
<path d="M190.624 531.8C189.524 530.5 184.924 524.6 180.424 518.5C175.924 512.5 171.624 506.8 171.024 506C170.324 505.2 168.424 502.7 166.824 500.5C165.224 498.3 163.624 496.3 163.324 496C163.024 495.7 158.824 490.1 153.824 483.5C148.924 476.9 144.224 470.9 143.624 470C142.924 469.2 140.624 466.2 138.624 463.4C136.524 460.5 130.824 453 125.824 446.5C120.924 440.1 114.624 431.8 111.824 428C103.724 417.1 98.0239 409.5 97.4239 409C97.1239 408.7 91.9239 402 85.9239 394C79.9239 386 70.8239 374.1 65.8239 367.5C60.8239 360.9 50.4239 347.2 42.6239 337C34.9239 326.8 25.8239 314.9 22.4239 310.5C12.3239 297.3 3.62385 284.7 1.82385 280.5C0.623853 277.8 0.0238534 273.7 0.0238534 267.5C-0.176147 252.9 0.223853 252.3 28.7239 214.4C37.0239 203.5 44.3239 193.9 45.0239 193C45.7239 192.2 50.1239 186.3 54.8239 180C59.5239 173.7 64.0239 167.8 64.7239 166.9C65.5239 166 68.9239 161.5 72.4239 156.9C75.9239 152.3 79.0239 148.3 79.3239 148C79.8239 147.6 90.4239 133.3 100.724 119.3C103.924 115 105.724 114 106.624 116.3C107.124 117.6 114.224 127 142.824 164.5C149.424 173.1 155.524 181.2 156.324 182.4C157.924 184.8 167.524 197.2 168.324 198C168.624 198.3 174.224 205.7 180.824 214.5C190.824 227.8 206.824 248.8 211.624 255C212.324 255.9 214.124 258.3 215.824 260.5C217.424 262.7 219.124 264.7 219.524 264.8C219.924 265 220.324 266 220.324 267C220.324 268 220.724 269 221.124 269.2C221.624 269.4 223.924 272.2 226.424 275.5C228.824 278.8 231.424 282.1 232.024 283C233.624 285 242.024 296 260.024 320C268.124 330.7 275.024 339.7 275.324 340C275.624 340.3 280.524 346.6 286.024 354C291.624 361.4 299.624 372 303.824 377.5C308.024 383 315.924 393.4 321.324 400.5C338.524 423.3 345.524 432.4 348.024 435.6C349.324 437.3 352.124 441 354.124 443.8C356.124 446.5 361.424 453.4 365.824 459.1C376.224 472.7 393.824 495.9 398.624 502.4C400.624 505.2 402.924 508.2 403.624 509C404.324 509.8 406.224 512.3 407.824 514.5C409.424 516.7 411.024 518.7 411.324 519C414.224 521.8 421.224 532.3 420.824 533C420.424 533.6 377.824 534 306.424 534H192.624L190.624 531.8Z" fill="#4285F3"/>
<path d="M544.024 533.4C543.524 532.9 581.324 481.8 584.324 479C584.624 478.7 589.824 472 595.724 464C601.724 456 611.424 443.2 617.324 435.5C623.124 427.8 632.424 415.7 637.824 408.5C643.224 401.4 651.124 391 655.324 385.5C659.524 380 669.224 367.2 676.924 357.1C684.524 346.9 696.024 331.8 702.324 323.5C708.624 315.2 716.124 305.2 719.024 301.4C721.924 297.6 724.624 294.1 725.024 293.5C725.524 293 727.224 290.7 728.824 288.5C730.524 286.3 732.024 284.3 732.324 284C732.624 283.7 734.824 280.8 737.224 277.5C739.724 274.2 742.724 270.3 743.924 268.7L746.224 266L753.224 275.2C757.124 280.3 761.024 285.4 761.824 286.5C765.324 290.9 784.424 316.1 791.324 325.5C794.324 329.5 801.524 339 807.324 346.5C813.124 354 818.724 361.4 819.824 363C825.924 371.5 833.924 381.7 835.524 383.1C836.524 384 837.324 385.1 837.324 385.6C837.324 386.1 838.924 388.2 840.824 390.2C842.824 392.3 844.424 394.3 844.524 394.7C844.624 395.7 849.524 402.5 855.324 409.8C857.824 412.9 860.424 416.2 861.124 417.1C862.224 418.6 861.124 420.5 853.124 431.1C848.124 437.9 843.724 443.7 843.324 444C843.024 444.3 838.724 449.9 833.824 456.5C828.824 463.1 824.324 469.2 823.624 470C822.924 470.8 819.124 475.9 815.124 481.2C811.124 486.5 800.424 500.6 791.524 512.4L775.124 534H659.924C596.524 534 544.424 533.7 544.024 533.4Z" fill="#FEC00A"/>
</g>
<defs>
<clipPath id="clip0">
<rect width="966" height="534" fill="white"/>
</clipPath>
</defs>
</svg>
