<svg width="768" height="1024" viewBox="0 0 768 1024" fill="none" xmlns="http://www.w3.org/2000/svg">
<g clip-path="url(#clip0)">
<path d="M593.574 81.5736C582.321 70.3214 567.06 64 551.147 64H60C26.8629 64 0 90.8629 0 124V900C0 933.137 26.8629 960 60 960H708C741.137 960 768 933.137 768 900V280.853C768 264.94 761.679 249.679 750.426 238.426L593.574 81.5736ZM704 836C704 869.137 677.137 896 644 896H124C90.8629 896 64 869.137 64 836V188C64 154.863 90.8629 128 124 128H487.147C503.06 128 518.321 134.321 529.574 145.574L686.426 302.426C697.679 313.679 704 328.94 704 344.853V836Z" fill="#34495E"/>
<g clip-path="url(#clip1)">
<path d="M415.031 794.699C414.78 794.448 433.751 768.802 435.256 767.397C435.407 767.247 438.017 763.884 440.978 759.869C443.989 755.854 448.857 749.43 451.818 745.566C454.729 741.701 459.396 735.629 462.106 732.015C464.817 728.452 468.781 723.232 470.889 720.472C472.997 717.712 477.865 711.288 481.73 706.219C485.544 701.1 491.315 693.521 494.477 689.356C497.639 685.19 501.403 680.172 502.859 678.264C504.314 676.357 505.669 674.601 505.87 674.3C506.121 674.049 506.974 672.894 507.777 671.79C508.63 670.686 509.383 669.682 509.533 669.532C509.885 669.181 515.757 661.402 516.208 660.649C516.56 660.047 513.749 656.032 506.02 646.044C505.067 644.79 503.16 642.28 501.754 640.423C500.399 638.566 498.241 635.756 496.987 634.15C495.732 632.544 493.925 630.185 492.972 628.88C492.018 627.575 488.906 623.46 486.096 619.796C483.285 616.082 478.367 609.558 475.105 605.292C471.893 601.026 468.781 596.911 468.179 596.208C467.577 595.456 466.673 594.251 466.121 593.498C464.917 591.792 457.841 582.507 442.885 562.884C441.429 560.977 438.267 556.761 435.859 553.599C433.5 550.438 430.288 546.222 428.732 544.264C427.226 542.257 425.52 539.999 424.968 539.246C424.416 538.493 423.362 537.138 422.659 536.285C421.957 535.482 420.25 533.223 418.895 531.266C417.54 529.359 416.285 527.653 416.085 527.602C415.282 527.251 416.235 526.599 417.189 526.85C417.741 527 418.092 527.251 417.992 527.452C417.841 527.653 418.243 527.853 418.845 527.853C419.698 527.954 419.799 527.853 419.196 527.502C418.745 527.201 439.221 527 474.252 527H530.06L531.164 528.656C531.817 529.509 532.519 530.312 532.72 530.413C532.921 530.513 533.121 530.915 533.121 531.316C533.121 531.718 533.322 532.019 533.573 532.019C533.824 532.019 534.527 532.822 535.129 533.775C535.731 534.779 536.484 535.833 536.785 536.184C538.19 537.64 541.603 542.006 543.36 544.566C544.464 546.071 545.518 547.426 545.769 547.476C545.969 547.577 546.17 547.978 546.17 548.33C546.17 548.681 546.371 549.082 546.622 549.183C546.823 549.283 548.027 550.688 549.232 552.395C553.949 558.919 554.903 560.124 555.304 560.124C555.505 560.124 555.706 560.475 555.706 560.876C555.706 561.278 555.957 561.629 556.208 561.629C556.509 561.629 556.709 561.88 556.709 562.131C556.709 562.432 557.262 563.185 557.964 563.838C558.667 564.49 559.219 565.243 559.219 565.594C559.219 565.895 559.47 566.146 559.721 566.146C560.022 566.146 560.223 566.397 560.223 566.648C560.223 566.949 560.624 567.551 561.126 568.053C562.732 569.81 563.736 571.165 563.736 571.667C563.736 571.968 563.987 572.169 564.238 572.169C564.539 572.169 564.739 572.52 564.739 572.921C564.739 573.323 564.94 573.674 565.141 573.674C565.392 573.674 566.345 574.778 567.299 576.184C568.253 577.539 569.156 578.693 569.407 578.693C569.608 578.693 569.758 579.044 569.758 579.446C569.758 579.847 569.909 580.199 570.16 580.199C570.36 580.199 571.214 581.202 572.017 582.457C572.87 583.661 573.673 584.715 573.924 584.715C574.124 584.715 574.275 584.966 574.275 585.217C574.275 585.518 574.827 586.271 575.53 586.924C576.232 587.576 576.784 588.329 576.784 588.68C576.784 588.981 577.035 589.232 577.286 589.232C577.587 589.232 577.788 589.584 577.788 589.985C577.788 590.336 578.089 590.888 578.441 591.089C578.842 591.29 579.745 592.444 580.548 593.649C581.301 594.803 582.154 595.757 582.355 595.757C582.606 595.757 582.807 596.108 582.807 596.509C582.807 596.911 583.058 597.262 583.309 597.262C583.61 597.262 583.811 597.513 583.811 597.764C583.811 598.065 584.312 598.818 584.965 599.42C585.567 600.023 586.42 601.127 586.772 601.93C587.173 602.682 587.675 603.285 587.876 603.285C588.076 603.285 588.729 604.038 589.281 604.941C589.833 605.894 590.837 607.199 591.439 607.902C593.447 610.11 594.35 611.315 594.35 611.716C594.35 611.917 594.902 612.67 595.605 613.423C596.307 614.175 596.859 615.029 596.859 615.33C596.859 615.581 597.01 615.832 597.261 615.832C597.462 615.832 598.315 616.885 599.118 618.09C599.971 619.345 600.774 620.348 601.025 620.348C601.226 620.348 601.376 620.7 601.376 621.101C601.376 621.503 601.577 621.854 601.828 621.854C602.029 621.854 602.832 622.707 603.534 623.811C604.237 624.865 605.391 626.371 606.094 627.124C606.796 627.876 607.399 628.73 607.399 629.031C607.399 629.282 607.951 630.035 608.653 630.687C609.356 631.339 609.908 632.092 609.908 632.393C609.908 632.644 610.109 632.895 610.309 632.895C610.56 632.895 611.062 633.497 611.464 634.3C611.815 635.053 612.668 636.157 613.271 636.76C613.923 637.362 614.425 638.115 614.425 638.416C614.425 638.667 614.575 638.918 614.826 638.918C615.027 638.918 615.88 639.921 616.683 641.176C617.536 642.381 618.339 643.435 618.59 643.435C618.791 643.435 618.942 643.786 618.942 644.187C618.942 644.589 619.142 644.94 619.393 644.94C619.644 644.94 620.548 646.094 621.451 647.449C622.354 648.855 623.258 649.959 623.509 649.959C623.76 649.959 623.96 650.411 623.96 650.963C623.96 651.515 624.111 651.966 624.362 651.966C624.814 651.966 625.918 655.078 626.52 658.24C627.022 660.95 626.721 665.015 625.868 667.023C625.566 667.725 625.065 668.829 624.763 669.532C624.312 670.586 616.784 681.125 614.726 683.635C614.375 684.036 613.17 685.642 612.016 687.148C610.912 688.653 608.754 691.464 607.298 693.371C601.025 701.551 591.941 713.496 590.184 715.905C589.13 717.31 588.026 718.816 587.675 719.217C587.324 719.619 586.37 720.873 585.567 721.978C584.714 723.082 583.861 724.186 583.66 724.487C577.888 731.915 574.777 736.13 574.777 736.632C574.777 737.134 566.195 749.029 565.241 749.832C565.091 749.982 562.933 752.793 560.473 756.105C557.964 759.417 555.706 762.479 555.354 762.88C555.003 763.282 553.096 765.841 551.088 768.501C549.081 771.161 543.711 778.238 539.244 784.16L531.014 795H473.198C441.379 795 415.232 794.849 415.031 794.699Z" fill="#119D58"/>
<path d="M237.669 793.896C237.117 793.243 234.808 790.282 232.55 787.221C230.291 784.21 228.133 781.349 227.832 780.947C227.481 780.546 226.527 779.291 225.724 778.187C224.921 777.083 224.118 776.079 223.968 775.929C223.817 775.778 221.709 772.968 219.2 769.655C216.741 766.343 214.382 763.332 214.081 762.88C213.73 762.479 212.575 760.973 211.572 759.568C210.518 758.112 207.657 754.348 205.148 751.086C202.688 747.874 199.527 743.709 198.121 741.801C194.056 736.331 191.195 732.517 190.894 732.266C190.744 732.115 188.134 728.753 185.123 724.738C182.112 720.723 177.545 714.75 175.035 711.438C172.526 708.126 167.306 701.25 163.392 696.131C159.527 691.012 154.96 685.04 153.254 682.831C148.185 676.207 143.819 669.883 142.915 667.775C142.313 666.42 142.012 664.362 142.012 661.251C141.912 653.924 142.112 653.622 156.416 634.601C160.581 629.131 164.245 624.313 164.596 623.861C164.948 623.46 167.156 620.499 169.515 617.337C171.873 614.175 174.132 611.214 174.483 610.762C174.885 610.311 176.591 608.052 178.348 605.744C180.104 603.435 181.66 601.428 181.81 601.277C182.112 601.026 187.13 594.251 192.651 586.723C194.558 584.113 196.616 581.353 197.118 580.65C198.673 578.542 210.216 563.335 213.679 558.869C217.544 553.85 228.786 538.995 234.156 531.918L238.221 526.498H296.137H354.003L352.849 528.154C352.246 529.007 349.587 532.571 346.977 536.034C344.367 539.497 338.696 546.924 334.43 552.595C330.164 558.267 325.497 564.389 324.091 566.196C322.736 568.053 318.27 573.925 314.204 579.245C310.139 584.615 305.321 591.039 303.414 593.498C301.507 596.007 296.388 602.783 291.972 608.554C287.605 614.376 282.285 621.352 280.178 624.112C278.07 626.873 273.101 633.447 269.136 638.667C265.121 643.936 260.655 649.808 259.199 651.715C253.378 659.294 252.575 660.498 252.575 661.201C252.575 661.602 252.775 662.004 252.976 662.104C253.227 662.204 254.381 663.61 255.636 665.266C256.84 666.922 258.145 668.578 258.446 669.03C259.249 670.034 263.465 675.554 272.499 687.599C276.564 692.969 280.027 697.486 280.178 697.637C280.328 697.787 282.787 700.949 285.548 704.663C288.358 708.377 292.373 713.697 294.481 716.457C296.589 719.217 300.554 724.437 303.264 728C311.896 739.443 315.409 744.01 316.664 745.616C317.316 746.469 318.721 748.326 319.725 749.731C320.729 751.086 323.389 754.549 325.597 757.41C330.816 764.235 339.649 775.879 342.058 779.141C343.062 780.546 344.216 782.052 344.568 782.453C344.919 782.855 345.873 784.109 346.676 785.213C347.479 786.318 348.282 787.321 348.432 787.472C349.888 788.877 353.401 794.147 353.2 794.498C352.999 794.799 331.619 795 295.786 795H238.673L237.669 793.896Z" fill="#D64437"/>
<path d="M237.669 793.896C237.117 793.243 234.808 790.282 232.55 787.221C230.291 784.21 228.133 781.349 227.832 780.948C227.481 780.546 226.527 779.291 225.724 778.187C224.921 777.083 224.118 776.079 223.968 775.929C223.817 775.778 221.709 772.968 219.2 769.655C216.741 766.343 214.382 763.332 214.081 762.88C213.73 762.479 212.575 760.973 211.572 759.568C210.518 758.112 207.657 754.348 205.148 751.086C202.688 747.874 199.527 743.709 198.121 741.802C194.056 736.331 191.195 732.517 190.894 732.266C190.744 732.115 188.134 728.753 185.123 724.738C182.112 720.723 177.545 714.751 175.035 711.438C172.526 708.126 167.306 701.25 163.392 696.131C159.527 691.012 154.96 685.04 153.254 682.831C148.185 676.207 143.819 669.883 142.915 667.775C142.313 666.42 142.012 664.363 142.012 661.251C141.912 653.924 142.112 653.622 156.416 634.602C160.581 629.131 164.245 624.313 164.596 623.861C164.948 623.46 167.156 620.499 169.515 617.337C171.873 614.175 174.132 611.214 174.483 610.763C174.885 610.311 176.591 608.052 178.348 605.744C180.104 603.435 181.66 601.428 181.81 601.277C182.061 601.076 187.381 593.9 192.551 586.873C194.157 584.715 195.06 584.213 195.512 585.368C195.763 586.02 199.326 590.738 213.679 609.558C216.992 613.874 220.053 617.939 220.455 618.542C221.258 619.746 226.076 625.969 226.477 626.371C226.628 626.521 229.438 630.235 232.751 634.652C237.769 641.327 245.799 651.866 248.208 654.978C248.56 655.429 249.463 656.634 250.316 657.738C251.119 658.842 251.972 659.846 252.173 659.896C252.374 659.996 252.575 660.498 252.575 661C252.575 661.502 252.775 662.004 252.976 662.104C253.227 662.205 254.381 663.61 255.636 665.266C256.84 666.922 258.145 668.578 258.446 669.03C259.249 670.034 263.465 675.554 272.499 687.599C276.564 692.969 280.027 697.486 280.178 697.637C280.328 697.787 282.787 700.949 285.548 704.663C288.358 708.377 292.373 713.697 294.481 716.457C296.589 719.217 300.554 724.437 303.264 728C311.896 739.443 315.409 744.01 316.664 745.616C317.316 746.469 318.721 748.326 319.725 749.731C320.729 751.086 323.389 754.549 325.597 757.41C330.816 764.235 339.649 775.879 342.058 779.141C343.062 780.546 344.216 782.052 344.568 782.453C344.919 782.855 345.873 784.109 346.676 785.214C347.479 786.318 348.282 787.321 348.432 787.472C349.888 788.877 353.401 794.147 353.2 794.498C352.999 794.799 331.619 795 295.786 795H238.673L237.669 793.896Z" fill="#4285F3"/>
<path d="M415.031 794.699C414.78 794.448 433.751 768.802 435.256 767.397C435.407 767.246 438.017 763.884 440.978 759.869C443.989 755.854 448.857 749.43 451.818 745.565C454.729 741.701 459.396 735.628 462.106 732.015C464.817 728.452 468.781 723.232 470.889 720.472C472.997 717.712 477.865 711.288 481.73 706.219C485.544 701.1 491.315 693.521 494.477 689.356C497.639 685.19 501.403 680.171 502.859 678.264C504.314 676.357 505.669 674.601 505.87 674.3C506.121 674.049 506.974 672.894 507.777 671.79C508.63 670.686 509.383 669.682 509.533 669.532C509.684 669.381 510.788 667.926 511.993 666.27C513.247 664.613 514.753 662.656 515.355 661.853L516.509 660.498L520.023 665.115C521.98 667.675 523.937 670.234 524.339 670.786C526.095 672.995 535.681 685.642 539.144 690.359C540.65 692.367 544.263 697.135 547.174 700.899C550.085 704.663 552.895 708.377 553.447 709.18C556.509 713.446 560.524 718.565 561.327 719.267C561.829 719.719 562.23 720.271 562.23 720.522C562.23 720.773 563.033 721.827 563.987 722.831C564.99 723.885 565.793 724.888 565.844 725.089C565.894 725.591 568.353 729.004 571.264 732.667C572.518 734.223 573.823 735.879 574.175 736.331C574.727 737.084 574.175 738.037 570.16 743.357C567.65 746.77 565.442 749.681 565.241 749.831C565.091 749.982 562.933 752.792 560.473 756.105C557.964 759.417 555.706 762.479 555.354 762.88C555.003 763.282 553.096 765.841 551.088 768.501C549.081 771.161 543.711 778.237 539.244 784.159L531.014 795H473.198C441.379 795 415.232 794.849 415.031 794.699Z" fill="#FEC00A"/>
</g>
</g>
<defs>
<clipPath id="clip0">
<rect width="768" height="1024" fill="white"/>
</clipPath>
<clipPath id="clip1">
<rect width="484.809" height="268" fill="white" transform="translate(142 527)"/>
</clipPath>
</defs>
</svg>
