<svg width="768" height="896" viewBox="0 0 768 896" fill="none" xmlns="http://www.w3.org/2000/svg">
<path d="M320 352C302.327 334.327 273.673 334.327 256 352L170.426 437.574C146.995 461.005 146.995 498.995 170.426 522.426L256 608C273.673 625.673 302.327 625.673 320 608V608C337.673 590.327 337.673 561.673 320 544L298.426 522.426C274.995 498.995 274.995 461.005 298.426 437.574L320 416C337.673 398.327 337.673 369.673 320 352V352ZM448 352C430.327 369.673 430.327 398.327 448 416L469.574 437.574C493.005 461.005 493.005 498.995 469.574 522.426L448 544C430.327 561.673 430.327 590.327 448 608V608C465.673 625.673 494.327 625.673 512 608L597.574 522.426C621.005 498.995 621.005 461.005 597.574 437.574L512 352C494.327 334.327 465.673 334.327 448 352V352ZM593.574 17.5736C582.321 6.32141 567.06 0 551.147 0H60C26.8629 0 0 26.8629 0 60V836C0 869.137 26.8629 896 60 896H708C741.137 896 768 869.137 768 836V216.853C768 200.94 761.679 185.679 750.426 174.426L593.574 17.5736ZM704 772C704 805.137 677.137 832 644 832H124C90.8629 832 64 805.137 64 772V124C64 90.8629 90.8629 64 124 64H487.147C503.06 64 518.321 70.3214 529.574 81.5736L686.426 238.426C697.679 249.679 704 264.94 704 280.853V772Z" fill="#436D97"/>
</svg>
